# File created by Blade
# Date/Time:  Tue Sep 28 14:35:47 2010
#---------------------------------------------------------
:version 1.10
:name HOM
:units
  mass 1.0
  length 1.000000
  angle deg
:documentation
     Acclaim Skeleton File
:root
   axis xyz
   order TX TY TZ RX RY RZ
   position 0.000000 0.000000 0.000000
   orientation 0 0 0
:bonedata
   begin
      id 1
      name LeftUpLeg_dum
      direction 1.000000 0.000000 0.000000
      length 3.677894
      axis 0.0 0.0 0.0 xyz
   end
   begin
      id 2
      name RightUpLeg_dum
      direction -1.000000 0.000000 0.000000
      length 3.677894
      axis 0.0 0.0 0.0 xyz
   end
   begin
      id 3
      name Spine_dum
      direction 0.000000 1.000000 0.000000
      length 0.039370
      axis 0.0 0.0 0.0 xyz
   end
   begin
      id 4
      name LeftUpLeg
      direction 0.000000 -1.000000 0.000000
      length 18.389491
      axis 0.0 0.0 0.0 xyz
      dof rx ry rz
   end
   begin
      id 5
      name LeftLeg
      direction 0.000000 -1.000000 0.000000
      length 16.918313
      axis 0.0 0.0 0.0 xyz
      dof rx ry rz
   end
   begin
      id 6
      name LeftFoot
      direction 0.000000 -0.258819 0.965926
      length 6.436326
      axis 15.0 0.0 0.0 xyz
      dof rx ry rz
   end
   begin
      id 7
      name LeftToeBase
      direction 0.000000 0.000000 1.000000
      length 2.952750
      axis 0.0 0.0 0.0 xyz
      dof rx ry rz
   end
   begin
      id 8
      name RightUpLeg
      direction 0.000000 -1.000000 0.000000
      length 18.389491
      axis 0.0 0.0 0.0 xyz
      dof rx ry rz
   end
   begin
      id 9
      name RightLeg
      direction 0.000000 -1.000000 0.000000
      length 16.918313
      axis 0.0 0.0 0.0 xyz
      dof rx ry rz
   end
   begin
      id 10
      name RightFoot
      direction 0.000000 -0.258819 0.965926
      length 6.436326
      axis 15.0 0.0 0.0 xyz
      dof rx ry rz
   end
   begin
      id 11
      name RightToeBase
      direction 0.000000 0.000000 1.000000
      length 2.952750
      axis 0.0 0.0 0.0 xyz
      dof rx ry rz
   end
   begin
      id 12
      name Spine
      direction 0.000000 1.000000 0.000000
      length 9.194745
      axis 0.0 0.0 0.0 xyz
      dof rx ry rz
   end
   begin
      id 13
      name Spine1
      direction 0.000000 1.000000 0.000000
      length 0.000000
      axis 0.0 0.0 0.0 xyz
      dof rx ry rz
   end
   begin
      id 14
      name Spine1_dum1
      direction 0.000000 1.000000 0.000000
      length 9.194745
      axis 0.0 0.0 0.0 xyz
   end
   begin
      id 15
      name Spine1_dum2
      direction 0.000000 1.000000 0.000000
      length 9.194745
      axis 0.0 0.0 0.0 xyz
   end
   begin
      id 16
      name Spine1_dum3
      direction 0.000000 1.000000 0.000000
      length 9.194745
      axis 0.0 0.0 0.0 xyz
   end
   begin
      id 17
      name Neck
      direction 0.000000 1.000000 0.000000
      length 4.229598
      axis 0.0 0.0 0.0 xyz
      dof rx ry rz
   end
   begin
      id 18
      name Head
      direction 0.000000 1.000000 0.000000
      length 4.527550
      axis 0.0 0.0 0.0 xyz
      dof rx ry rz
   end
   begin
      id 19
      name LeftShoulder
      direction 1.000000 -0.000004 0.000000
      length 5.516839
      axis 0.0 0.0 -90.0 xyz
      dof rx ry rz
   end
   begin
      id 20
      name LeftArm
      direction 1.000000 -0.000004 0.000000
      length 11.033679
      axis 0.0 0.0 -90.0 xyz
      dof rx ry rz
   end
   begin
      id 21
      name LeftForeArm
      direction 1.000000 -0.000004 0.000000
      length 10.114232
      axis 0.0 0.0 -90.0 xyz
      dof rx ry rz
   end
   begin
      id 22
      name LeftHand
      direction 0.000000 0.000000 0.000000
      length 0.000000
      axis 0.0 0.0 -90.0 xyz
      dof rx ry rz
   end
   begin
      id 23
      name LeftHand_dum1
      direction 0.000000 0.000000 0.000000
      length 0.000000
      axis 0.0 0.0 -90.0 xyz
   end
   begin
      id 24
      name LeftHand_dum2
      direction 1.000000 -0.000004 0.000000
      length 3.937000
      axis 0.0 0.0 -90.0 xyz
   end
   begin
      id 25
      name LeftHandThumb
      direction 0.000000 0.000000 1.000000
      length 3.937000
      axis 0.0 0.0 -90.0 xyz
      dof rx ry rz
   end
   begin
      id 26
      name RightShoulder
      direction -1.000000 -0.000004 0.000000
      length 5.516839
      axis 0.0 0.0 90.0 xyz
      dof rx ry rz
   end
   begin
      id 27
      name RightArm
      direction -1.000000 -0.000004 0.000000
      length 11.033679
      axis 0.0 0.0 90.0 xyz
      dof rx ry rz
   end
   begin
      id 28
      name RightForeArm
      direction -1.000000 -0.000004 0.000000
      length 10.114232
      axis 0.0 0.0 90.0 xyz
      dof rx ry rz
   end
   begin
      id 29
      name RightHand
      direction 0.000000 0.000000 0.000000
      length 0.000000
      axis 0.0 0.0 90.0 xyz
      dof rx ry rz
   end
   begin
      id 30
      name RightHand_dum1
      direction 0.000000 0.000000 0.000000
      length 0.000000
      axis 0.0 0.0 90.0 xyz
   end
   begin
      id 31
      name RightHand_dum2
      direction -1.000000 -0.000004 0.000000
      length 5.393690
      axis 0.0 0.0 90.0 xyz
   end
   begin
      id 32
      name RightHandThumb
      direction 0.000000 0.000000 1.000000
      length 3.937000
      axis 0.0 0.0 90.0 xyz
      dof rx ry rz
   end
:hierarchy
   begin
      root LeftUpLeg_dum RightUpLeg_dum Spine_dum
      LeftUpLeg_dum LeftUpLeg
      RightUpLeg_dum RightUpLeg
      Spine_dum Spine
      LeftUpLeg LeftLeg
      LeftLeg LeftFoot
      LeftFoot LeftToeBase
      RightUpLeg RightLeg
      RightLeg RightFoot
      RightFoot RightToeBase
      Spine Spine1
      Spine1 Spine1_dum1 Spine1_dum2 Spine1_dum3
      Spine1_dum1 Neck
      Spine1_dum2 LeftShoulder
      Spine1_dum3 RightShoulder
      Neck Head
      LeftShoulder LeftArm
      LeftArm LeftForeArm
      LeftForeArm LeftHand
      LeftHand LeftHand_dum1 LeftHand_dum2
      LeftHand_dum1 LeftHandThumb
      RightShoulder RightArm
      RightArm RightForeArm
      RightForeArm RightHand
      RightHand RightHand_dum1 RightHand_dum2
      RightHand_dum1 RightHandThumb
   end

# File created by Blade
# Date/Time:  Tue Sep 28 14:35:42 2010
# Frame Rate: 200.000 fps
#------------------------------------------------------
:FULLY-SPECIFIED
:DEGREES
722
root  0.108182 37.521432 26.695986 4.564875 2.851668 -5.314858
LeftUpLeg  -28.201865 9.735143 5.527235
LeftLeg  54.756222 -0.000000 -0.000000
LeftFoot  9.524396 17.702906 14.453396
LeftToeBase  -13.567857 0.000000 -0.000000
RightUpLeg  -10.769875 -25.877902 10.795085
RightLeg  19.635766 -0.000000 0.000000
RightFoot  -1.926153 3.503703 -18.101703
RightToeBase  -11.150453 0.000000 -0.000000
Spine  -14.091752 -0.964604 4.717819
Spine1  16.977187 -1.605707 5.149073
Neck  11.508308 2.185110 -8.437199
Head  -8.829318 1.460147 2.293948
LeftShoulder  -7.390859 -11.180546 -26.201309
LeftArm  1.627553 40.695223 -38.135199
LeftForeArm  41.089871 -0.000000 0.000000
LeftHand  8.101184 -8.461340 0.427361
LeftHandThumb  0.000000 -0.000000 0.000000
RightShoulder  1.543400 5.275134 22.368713
RightArm  -5.914968 -50.215124 44.809974
RightForeArm  25.764547 -0.000000 0.000000
RightHand  4.255537 14.723311 3.495679
RightHandThumb  0.000000 -0.000000 0.000000
723
root  0.095768 37.526240 26.909811 4.658986 2.746004 -5.108511
LeftUpLeg  -28.363982 9.751251 5.251801
LeftLeg  53.517626 -0.000000 -0.000000
LeftFoot  9.750211 17.733458 14.658636
LeftToeBase  -14.874776 0.000000 -0.000000
RightUpLeg  -10.350909 -26.532083 10.513423
RightLeg  19.351794 -0.000000 0.000000
RightFoot  -2.358593 4.114008 -18.397097
RightToeBase  -10.915041 0.000000 -0.000000
Spine  -14.171928 -0.914741 4.505242
Spine1  16.791359 -1.473529 5.074116
Neck  11.753539 2.003499 -8.353444
Head  -8.674957 1.555549 2.269080
LeftShoulder  -7.436241 -11.169464 -26.251646
LeftArm  1.456297 40.921511 -38.141091
LeftForeArm  40.737759 -0.000000 0.000000
LeftHand  8.018532 -8.737469 0.335163
LeftHandThumb  0.000000 -0.000000 0.000000
RightShoulder  1.513757 5.075174 22.403487
RightArm  -5.768695 -50.156246 44.657826
RightForeArm  25.811786 -0.000000 0.000000
RightHand  4.416494 15.866638 3.447559
RightHandThumb  0.000000 -0.000000 0.000000
724
root  0.089188 37.519728 27.034753 4.639265 2.693065 -5.076446
LeftUpLeg  -28.744265 9.547696 5.157647
LeftLeg  52.703376 -0.000000 0.000000
LeftFoot  9.223337 17.788258 13.945454
LeftToeBase  -13.159747 0.000000 -0.000000
RightUpLeg  -10.172733 -26.322260 10.373734
RightLeg  19.491078 -0.000000 0.000000
RightFoot  -2.353613 3.997016 -18.183622
RightToeBase  -11.524146 0.000000 -0.000000
Spine  -14.022185 -0.891171 4.453060
Spine1  17.006517 -1.446128 5.044190
Neck  11.656276 2.068125 -8.338333
Head  -9.128838 1.554924 2.282910
LeftShoulder  -7.359749 -11.336436 -26.303160
LeftArm  1.440586 40.910720 -38.157207
LeftForeArm  40.522098 -0.000000 0.000000
LeftHand  7.961966 -8.824744 0.622025
LeftHandThumb  0.000000 -0.000000 0.000000
RightShoulder  1.676338 5.614916 22.408810
RightArm  -5.872011 -50.395234 44.690174
RightForeArm  25.796713 -0.000000 0.000000
RightHand  4.514999 15.102274 3.529967
RightHandThumb  0.000000 -0.000000 0.000000
725
root  0.078920 37.513841 27.231889 4.683394 2.620301 -4.965030
LeftUpLeg  -28.976210 9.491252 4.989485
LeftLeg  51.658910 -0.000000 0.000000
LeftFoot  9.265556 17.847907 13.907424
LeftToeBase  -13.389380 0.000000 -0.000000
RightUpLeg  -9.821676 -26.524407 10.136745
RightLeg  19.467687 -0.000000 0.000000
RightFoot  -2.803771 4.193743 -18.304418
RightToeBase  -11.076184 0.000000 -0.000000
Spine  -14.045652 -0.870215 4.318601
Spine1  16.905795 -1.373866 4.992059
Neck  11.737379 2.016073 -8.288374
Head  -8.813025 1.555343 2.322545
LeftShoulder  -7.382767 -11.272818 -26.366066
LeftArm  1.346961 40.995223 -38.151411
LeftForeArm  40.173074 -0.000000 0.000000
LeftHand  8.077634 -8.647498 0.427017
LeftHandThumb  0.000000 -0.000000 0.000000
RightShoulder  1.607218 5.212902 22.409664
RightArm  -5.325688 -49.859496 44.208470
RightForeArm  25.987049 -0.000000 0.000000
RightHand  4.320910 14.867302 3.698939
RightHandThumb  0.000000 -0.000000 0.000000
726
root  0.071477 37.508079 27.389433 4.708991 2.562064 -4.891817
LeftUpLeg  -29.245939 9.389073 4.856742
LeftLeg  50.611044 -0.000000 0.000000
LeftFoot  9.167687 17.936852 13.428673
LeftToeBase  -13.174219 0.000000 -0.000000
RightUpLeg  -9.552727 -26.573609 9.960978
RightLeg  19.451327 -0.000000 0.000000
RightFoot  -2.970917 4.279301 -18.304087
RightToeBase  -11.268375 0.000000 -0.000000
Spine  -13.986193 -0.841252 4.224155
Spine1  16.956899 -1.316743 4.955274
Neck  11.688308 2.069653 -8.246562
Head  -8.999397 1.590523 2.316667
LeftShoulder  -7.353240 -11.316386 -26.435127
LeftArm  1.328792 40.971325 -38.129998
LeftForeArm  39.881129 -0.000000 0.000000
LeftHand  7.980636 -8.495544 0.444954
LeftHandThumb  0.000000 -0.000000 0.000000
RightShoulder  1.707846 5.456133 22.427090
RightArm  -5.315571 -50.068688 44.134403
RightForeArm  26.003781 -0.000000 0.000000
RightHand  4.447853 15.065322 3.603382
RightHandThumb  0.000000 -0.000000 0.000000
727
root  0.061685 37.502790 27.592223 4.782284 2.489759 -4.766258
LeftUpLeg  -29.404349 9.361788 4.674173
LeftLeg  49.392096 -0.000000 0.000000
LeftFoot  9.103645 18.034141 13.455464
LeftToeBase  -13.283892 0.000000 -0.000000
RightUpLeg  -9.189713 -26.977754 9.731007
RightLeg  19.299615 -0.000000 0.000000
RightFoot  -3.370695 4.631996 -18.403408
RightToeBase  -11.046546 0.000000 -0.000000
Spine  -14.028178 -0.818449 4.071151
Spine1  16.858873 -1.236483 4.897467
Neck  11.792706 1.968604 -8.183647
Head  -8.784872 1.594104 2.346873
LeftShoulder  -7.385736 -11.232996 -26.519469
LeftArm  1.248170 41.068556 -38.090273
LeftForeArm  39.491302 -0.000000 0.000000
LeftHand  8.069478 -8.500187 0.351447
LeftHandThumb  0.000000 -0.000000 0.000000
RightShoulder  1.706565 5.396464 22.439114
RightArm  -5.240834 -50.008555 44.025959
RightForeArm  26.174411 -0.000000 0.000000
RightHand  4.310083 15.148880 3.482915
RightHandThumb  0.000000 -0.000000 0.000000
728
root  0.055539 37.494254 27.745582 4.800327 2.431570 -4.692403
LeftUpLeg  -29.674243 9.262575 4.539760
LeftLeg  48.340960 -0.000000 0.000000
LeftFoot  8.987692 18.150447 12.898643
LeftToeBase  -12.671945 0.000000 -0.000000
RightUpLeg  -8.922029 -26.973457 9.549081
RightLeg  19.296555 -0.000000 0.000000
RightFoot  -3.527935 4.680804 -18.366471
RightToeBase  -11.181800 0.000000 -0.000000
Spine  -13.978418 -0.796699 3.977935
Spine1  16.949303 -1.188712 4.861935
Neck  11.756404 2.002747 -8.150623
Head  -8.977915 1.607082 2.348470
LeftShoulder  -7.335870 -11.338114 -26.590078
LeftArm  1.200656 41.149355 -38.065622
LeftForeArm  39.191962 -0.000000 0.000000
LeftHand  7.823740 -8.412820 0.496923
LeftHandThumb  0.000000 -0.000000 0.000000
RightShoulder  1.770905 5.500500 22.458444
RightArm  -5.007750 -49.833488 43.795149
RightForeArm  26.209409 -0.000000 0.000000
RightHand  4.481377 15.041229 3.574008
RightHandThumb  0.000000 -0.000000 0.000000
729
root  0.046015 37.484068 27.949632 4.857089 2.345861 -4.571145
LeftUpLeg  -29.873062 9.217024 4.349824
LeftLeg  47.212066 -0.000000 0.000000
LeftFoot  9.163144 18.322977 13.050744
LeftToeBase  -12.920701 0.000000 -0.000000
RightUpLeg  -8.536637 -27.288445 9.298667
RightLeg  19.166190 -0.000000 0.000000
RightFoot  -3.953411 4.960470 -18.463278
RightToeBase  -10.928261 0.000000 -0.000000
Spine  -14.038400 -0.771822 3.825416
Spine1  16.881059 -1.108092 4.808937
Neck  11.866299 1.929611 -8.095761
Head  -8.781693 1.623882 2.372337
LeftShoulder  -7.340194 -11.313674 -26.690109
LeftArm  1.071324 41.372155 -38.031458
LeftForeArm  38.789759 -0.000000 0.000000
LeftHand  8.053029 -8.328605 0.339681
LeftHandThumb  0.000000 -0.000000 0.000000
RightShoulder  1.764612 5.331315 22.476225
RightArm  -4.768741 -49.698519 43.527006
RightForeArm  26.396025 -0.000000 0.000000
RightHand  4.354277 15.299073 3.486427
RightHandThumb  0.000000 -0.000000 0.000000
730
root  0.042675 37.472546 28.105790 4.882358 2.283312 -4.502420
LeftUpLeg  -30.119685 9.099270 4.229212
LeftLeg  46.146188 -0.000000 0.000000
LeftFoot  8.998482 18.459760 12.542438
LeftToeBase  -12.447727 0.000000 -0.000000
RightUpLeg  -8.277578 -27.276846 9.110589
RightLeg  19.159156 -0.000000 0.000000
RightFoot  -4.065334 5.046019 -18.393036
RightToeBase  -11.363015 0.000000 -0.000000
Spine  -13.984823 -0.751146 3.730186
Spine1  16.972991 -1.060574 4.773616
Neck  11.790686 1.968020 -8.044228
Head  -8.968641 1.631929 2.371044
LeftShoulder  -7.300019 -11.371176 -26.767929
LeftArm  1.045564 41.431980 -37.988290
LeftForeArm  38.511386 -0.000000 0.000000
LeftHand  7.768648 -8.385446 0.496607
LeftHandThumb  0.000000 -0.000000 0.000000
RightShoulder  1.853128 5.558532 22.497601
RightArm  -4.687444 -49.715448 43.403896
RightForeArm  26.448304 -0.000000 0.000000
RightHand  4.543994 15.343136 3.493543
RightHandThumb  0.000000 -0.000000 0.000000
731
root  0.033942 37.463470 28.309323 4.974399 2.211848 -4.374479
LeftUpLeg  -30.172966 9.156020 4.019735
LeftLeg  44.709664 -0.000000 0.000000
LeftFoot  8.868606 18.599577 12.620230
LeftToeBase  -12.523848 0.000000 -0.000000
RightUpLeg  -7.913817 -27.672118 8.868551
RightLeg  18.986803 -0.000000 0.000000
RightFoot  -4.485126 5.379155 -18.538164
RightToeBase  -11.057803 0.000000 -0.000000
Spine  -14.061549 -0.730489 3.571940
Spine1  16.871485 -0.980210 4.718264
Neck  11.874181 1.933245 -7.998916
Head  -8.706607 1.634220 2.387508
LeftShoulder  -7.306641 -11.304785 -26.889701
LeftArm  0.966764 41.627779 -37.921304
LeftForeArm  38.074276 -0.000000 0.000000
LeftHand  7.852621 -8.190365 0.413440
LeftHandThumb  0.000000 -0.000000 0.000000
RightShoulder  1.843640 5.334316 22.521848
RightArm  -4.410413 -49.503368 43.111465
RightForeArm  26.625910 -0.000000 0.000000
RightHand  4.372493 15.236591 3.388196
RightHandThumb  0.000000 -0.000000 0.000000
732
root  0.032465 37.449093 28.462381 4.994162 2.145458 -4.306552
LeftUpLeg  -30.425952 9.086474 3.887268
LeftLeg  43.666922 -0.000000 0.000000
LeftFoot  8.646589 18.746527 12.112076
LeftToeBase  -12.046279 0.000000 -0.000000
RightUpLeg  -7.664418 -27.625255 8.681692
RightLeg  19.015051 -0.000000 0.000000
RightFoot  -4.632611 5.388882 -18.463988
RightToeBase  -11.386267 0.000000 -0.000000
Spine  -14.005089 -0.712856 3.480574
Spine1  17.005391 -0.938934 4.686451
Neck  11.791331 1.964024 -7.951505
Head  -8.950747 1.629598 2.401379
LeftShoulder  -7.230098 -11.470561 -26.969059
LeftArm  0.886924 41.821220 -37.897375
LeftForeArm  37.720802 -0.000000 0.000000
LeftHand  7.651262 -8.249679 0.524520
LeftHandThumb  0.000000 -0.000000 0.000000
RightShoulder  1.972890 5.706765 22.551620
RightArm  -4.421903 -49.678789 43.041775
RightForeArm  26.661779 -0.000000 0.000000
RightHand  4.686855 15.476874 3.459219
RightHandThumb  0.000000 -0.000000 0.000000
